<?xml version="1.0" encoding="UTF-8" standalone="no"?>
<svg
   xmlns:dc="http://purl.org/dc/elements/1.1/"
   xmlns:cc="http://creativecommons.org/ns#"
   xmlns:rdf="http://www.w3.org/1999/02/22-rdf-syntax-ns#"
   xmlns:svg="http://www.w3.org/2000/svg"
   xmlns="http://www.w3.org/2000/svg"
   xmlns:sodipodi="http://sodipodi.sourceforge.net/DTD/sodipodi-0.dtd"
   xmlns:inkscape="http://www.inkscape.org/namespaces/inkscape"
   width="1000"
   height="1000"
   viewBox="0 0 264.58333 264.58333"
   version="1.1"
   id="svg8"
   inkscape:version="1.0 (4035a4fb49, 2020-05-01)"
   sodipodi:docname="tu_logo_dark.svg">
  <defs
     id="defs2" />
  <sodipodi:namedview
     id="base"
     pagecolor="#ffffff"
     bordercolor="#666666"
     borderopacity="1.0"
     inkscape:pageopacity="0.0"
     inkscape:pageshadow="2"
     inkscape:zoom="0.71271874"
     inkscape:cx="709.90365"
     inkscape:cy="514.4018"
     inkscape:document-units="mm"
     inkscape:current-layer="layer1"
     inkscape:document-rotation="0"
     showgrid="false"
     inkscape:window-width="1898"
     inkscape:window-height="1020"
     inkscape:window-x="0"
     inkscape:window-y="0"
     inkscape:window-maximized="0"
     units="px">
    <inkscape:grid
       type="xygrid"
       id="grid833" />
  </sodipodi:namedview>
  <metadata
     id="metadata5">
    <rdf:RDF>
      <cc:Work
         rdf:about="">
        <dc:format>image/svg+xml</dc:format>
        <dc:type
           rdf:resource="http://purl.org/dc/dcmitype/StillImage" />
        <dc:title />
      </cc:Work>
    </rdf:RDF>
  </metadata>
  <g
     inkscape:label="Warstwa 1"
     inkscape:groupmode="layer"
     id="layer1">
    <path
       style="fill:none;stroke:#ff7721;stroke-width:5.29166667;stroke-linecap:round;stroke-linejoin:round;stroke-miterlimit:4;stroke-dasharray:none;stroke-opacity:1"
       d="m 74.300334,208.92587 v -6.45856 -11.0718 c 0,0 1.532101,-2.98693 1.845302,-4.61325 0.34896,-1.81201 0,-5.53591 0,-5.53591"
       id="path1019"
       sodipodi:nodetypes="cccac" />
    <path
       sodipodi:nodetypes="cssccccccccaaaaaaacacccccc"
       id="path835-1"
       d="m 84.774158,52.014921 c 0,0 5.74935,-18.6645 13.229134,-23.8125 10.274318,-7.07132 24.910198,-8.18872 37.041658,-5.29167 10.47107,2.50054 21.87696,10.98468 26.45833,18.52084 5.57348,9.16811 4.89743,21.25959 2.64583,31.74999 -1.33464,6.21817 -5.38474,12.21144 -10.58333,15.87499 -5.94481,4.18943 -18.52083,5.29167 -18.52083,5.29167 0,0 13.11974,4.40671 23.8125,5.291672 7.03152,0.581947 12.00235,0.0542 18.52083,-2.645842 9.21852,-3.81844 13.22917,-18.52082 13.22917,-18.52082 0,0 17.63457,30.737189 18.52083,39.687529 0.86905,8.77652 -0.30151,20.59966 -5.29167,29.10417 -3.86769,6.59155 -10.85401,11.16952 -17.69166,14.58333 -8.37144,4.17957 -17.96364,5.79886 -27.2875,6.58333 -25.54688,2.14943 -52.46233,2.97777 -76.729125,-5.29166 -9.029793,-3.0771 -18.862369,-7.72014 -23.812501,-15.875 -4.652681,-7.66485 -4.622555,-17.94061 -2.908333,-26.74167 1.740185,-8.93436 6.671311,-17.44039 12.924999,-24.054209 4.414126,-4.66831 16.441668,-10.05833 16.441668,-10.05833 0,0 -12.251192,-8.30118 -18.562501,-12.15832 -5.181215,-3.16649 -15.833333,-9.00833 -15.833333,-9.00833 h 23.8125 L 56.992907,52.014921 c 0,0 -2.570174,-2.72149 -1.322916,-3.96875 1.247257,-1.24726 14.142938,3.63519 15.875,3.96875 9.327439,1.7963 13.229167,0 13.229167,0 z"
       style="fill:#ececec;stroke:none;stroke-width:2.64583;stroke-linecap:butt;stroke-linejoin:round;stroke-miterlimit:4;stroke-dasharray:none;stroke-opacity:1" />
    <path
       id="path835-1-9"
       style="fill:#000000;stroke:none;stroke-width:2.64583;stroke-linecap:butt;stroke-linejoin:round;stroke-miterlimit:4;stroke-dasharray:none;stroke-opacity:1"
       d="m 123.42914,21.369696 c -0.14547,14.52386 -0.22325,39.19575 -0.22325,73.51024 0,35.297204 0.0809,60.532174 0.23462,74.859004 0.25017,0.006 0.50008,0.0134 0.75034,0.0186 0.15381,-14.32385 0.23564,-39.56683 0.23564,-74.877604 0,-34.297165 -0.0779,-58.959456 -0.22324,-73.48647 -0.25776,-0.01035 -0.51593,-0.01702 -0.77411,-0.02377 z m -4.00803,0.04083 c -0.73374,0.03494 -1.46628,0.0863 -2.19728,0.151927 -0.11535,12.175254 -0.12144,33.969187 -0.12144,73.317488 0,40.832509 0.007,62.729679 0.13539,74.615079 0.7228,0.0406 1.44599,0.0752 2.1699,0.1075 0.12968,-11.85999 0.13642,-33.76713 0.13642,-74.722579 0,-39.52208 -0.006,-61.326429 -0.12299,-73.469415 z m 7.56698,0.166397 c -0.1152,12.178302 -0.1204,33.971272 -0.1204,73.303018 0,41.180659 0.006,63.106589 0.13797,74.919469 0.72144,0.006 1.44297,0.007 2.16473,0.006 0.13184,-11.81139 0.13849,-33.73791 0.13849,-74.925669 0,-39.053347 -0.005,-60.83065 -0.11782,-73.059623 -0.72991,-0.09553 -1.46457,-0.176543 -2.20297,-0.243395 z m 3.54139,0.435633 v 72.867385 74.917909 c 1.22058,-0.009 2.44127,-0.0237 3.66179,-0.0496 V 94.879936 22.713282 c -1.19975,-0.273272 -2.42209,-0.507455 -3.66179,-0.700731 z m -17.30592,0.06873 c -0.2634,0.04532 -0.52535,0.09504 -0.78755,0.144695 -0.14034,14.630447 -0.21601,38.963584 -0.21601,72.653961 0,34.876138 0.0798,59.865628 0.22996,74.281258 0.2531,0.0212 0.50687,0.0383 0.76016,0.0584 0.1505,-14.40695 0.23048,-39.42096 0.23048,-74.339658 0,-33.79584 -0.0759,-58.185208 -0.21704,-72.798656 z m -2.43655,0.484724 c -0.26695,0.06067 -0.53207,0.126855 -0.79736,0.192238 -0.1372,14.689461 -0.21084,38.819267 -0.21084,72.121694 0,34.713438 0.0791,59.609838 0.22789,74.058018 0.25447,0.0252 0.5096,0.0463 0.76429,0.0703 0.14921,-14.43804 0.22841,-39.36364 0.22841,-74.128298 0,-33.44254 -0.0741,-57.645144 -0.21239,-72.313932 z m -2.43602,0.625803 c -0.2709,0.078 -0.53955,0.161237 -0.80822,0.24443 -0.13325,14.756604 -0.20516,38.63544 -0.20516,71.443699 0,34.522858 0.0781,59.311468 0.22531,73.796538 0.25594,0.0294 0.51276,0.0546 0.76895,0.0827 0.14769,-14.47355 0.22634,-39.2961 0.22634,-73.879218 0,-32.986416 -0.0726,-56.954695 -0.20722,-71.688129 z m 28.48715,0.224793 c -0.13217,14.623198 -0.20393,38.258257 -0.20516,70.635997 0.3741,-0.04862 0.76028,-0.101058 1.21957,-0.168982 -0.001,-32.098067 -0.0721,-55.587354 -0.20258,-70.206051 -0.27077,-0.09083 -0.54148,-0.177247 -0.81183,-0.260964 z m 2.43396,0.849043 c -0.12681,14.633101 -0.19568,37.856559 -0.19741,69.426769 0.39024,-0.06441 0.79755,-0.134734 1.21957,-0.211874 -0.002,-31.220084 -0.0696,-54.265723 -0.19431,-68.886233 -0.27571,-0.113059 -0.55175,-0.222276 -0.82785,-0.328662 z m -35.59628,0.587044 c -1.26036,0.538702 -2.48328,1.144259 -3.6618,1.816944 v 68.210305 72.726318 c 1.21683,0.20604 2.43772,0.39426 3.6618,0.56792 V 94.879936 Z m 40.36446,1.584399 c -0.0774,12.558948 -0.0835,33.09743 -0.0837,66.259521 0.80912,-0.198268 1.62645,-0.412842 2.44068,-0.657841 -2.6e-4,-31.588112 -0.006,-51.772134 -0.0754,-64.330439 -0.7508,-0.444098 -1.51257,-0.867794 -2.28152,-1.271241 z m -45.324369,1.009242 c -0.34838,0.220494 -0.69338,0.446665 -1.0325,0.680062 -0.42728,0.294081 -0.84824,0.633973 -1.26349,1.010274 -0.0644,13.059971 -0.0682,33.524637 -0.0682,65.743272 0,37.959788 0.005,59.656258 0.10852,72.072608 0.73882,0.14628 1.47913,0.28671 2.22105,0.42013 0.10745,-12.34235 0.11163,-34.0878 0.11163,-72.492738 0,-33.681985 -0.004,-54.479153 -0.077,-67.433608 z m 51.493499,2.793627 c -0.0929,14.161836 -0.14274,34.529387 -0.14779,60.478995 0.41848,-0.181782 0.82368,-0.373351 1.21646,-0.572574 -0.006,-25.288978 -0.0546,-45.207552 -0.14417,-59.22946 -0.305,-0.228003 -0.6128,-0.454155 -0.9245,-0.676961 z m 2.29134,1.735294 v 57.490031 c 0.25703,-0.157424 0.50802,-0.318119 0.74517,-0.485243 1.48516,-1.046618 2.87606,-2.283447 4.13722,-3.661275 V 36.459214 c -1.43898,-1.535599 -3.08776,-3.048312 -4.88239,-4.483965 z m -59.941059,1.894459 c -0.33065,0.508989 -0.65285,1.033677 -0.96841,1.568378 -0.0786,14.649006 -0.12196,34.369293 -0.12196,59.44185 0,32.503358 0.0707,56.232088 0.20154,71.025648 0.2717,0.0652 0.54377,0.12894 0.81597,0.19224 0.13194,-14.77701 0.20309,-38.57442 0.20309,-71.217888 0,-25.970286 -0.046,-46.238117 -0.13023,-61.010228 z m 66.044559,3.95583 v 46.063855 c 1.47002,-1.843119 2.71429,-3.883017 3.66179,-6.022372 V 43.334764 c -0.33205,-0.672809 -0.69026,-1.333797 -1.08262,-1.979208 -0.70666,-1.162428 -1.57625,-2.34792 -2.57917,-3.530018 z M 90.141241,38.05964 c -0.35223,0.678796 -0.69162,1.362114 -1.017,2.043284 -0.063,14.113602 -0.0961,32.374583 -0.0961,54.777018 0,32.055158 0.0685,55.569018 0.19585,70.410698 0.27515,0.0724 0.55112,0.14204 0.82682,0.21239 0.12853,-14.82589 0.19792,-38.41313 0.19792,-70.623088 0,-23.571999 -0.0378,-42.441109 -0.10748,-56.820302 z m -2.33371,4.958868 c -2.09211,4.852728 -3.35328,8.920387 -3.35328,8.920387 0,0 -0.49539,0.222393 -1.52911,0.432531 v 32.93184 c 0.75926,0.511588 1.52911,1.031462 1.52911,1.031462 0,0 -0.62608,0.285483 -1.52911,0.716235 v 7.828979 68.557068 c 1.61596,0.53048 3.24481,1.0155 4.88239,1.46916 V 94.879936 Z m 75.699779,3.256134 c -0.0114,7.662646 -0.0167,17.304877 -0.0186,28.201379 0.12729,-0.455162 0.24214,-0.91201 0.34054,-1.370459 1.86802,-8.703273 2.64802,-18.507258 -0.32194,-26.83092 z M 56.31953,47.768601 c -0.08258,-0.0026 -0.155398,5e-6 -0.229444,0.0021 -0.0014,1.034648 -0.0014,2.366706 -0.0026,3.454054 0.31673,0.419327 0.585494,0.714168 0.585494,0.714168 l 1.82521,1.404049 c -0.0016,-1.699578 -0.0025,-3.66277 -0.0046,-5.239991 -0.860531,-0.188833 -1.618157,-0.317053 -2.174028,-0.334346 z m 3.47989,0.648023 c -0.0065,1.954815 -0.01362,3.826168 -0.01912,5.912299 l 1.128612,0.86868 c -0.0059,-2.310328 -0.01362,-4.33565 -0.02067,-6.487974 -0.373518,-0.104619 -0.734386,-0.201293 -1.088824,-0.293005 z m 3.595647,1.036629 v 7.65638 l 3.661791,2.816881 v -9.29659 C 65.90945,50.252033 64.675182,49.850409 63.395067,49.453253 Z m 6.102984,1.973522 v 10.377662 l 3.66179,2.816881 V 52.271685 c -0.61807,-0.09433 -1.26057,-0.202959 -1.93476,-0.332796 -0.2845,-0.05479 -0.94126,-0.259199 -1.72703,-0.512114 z m 12.15327,1.146183 c -0.34167,0.04165 -0.70644,0.07941 -1.11518,0.106971 -0.0255,9.050372 -0.0407,19.432868 -0.047,30.992939 0.39144,0.262068 0.86799,0.578446 1.21027,0.80822 -0.006,-11.933769 -0.0218,-22.621819 -0.0481,-31.90813 z m -4.8147,0.09664 c -0.008,7.986226 -0.0125,17.537139 -0.0134,28.558464 0.92658,0.613984 1.61346,1.073816 2.43809,1.624189 -8e-4,-11.709273 -0.005,-21.754247 -0.0129,-30.122709 -0.72175,0.01177 -1.52584,-0.0058 -2.41174,-0.05994 z M 56.0751,65.168056 c -3.97e-4,1.043154 -7.17e-4,2.259893 -10e-4,3.340364 0.784686,0.440029 1.60592,0.902245 2.435511,1.372008 -3.94e-4,-1.508583 -4.87e-4,-3.274886 -10e-4,-4.712372 z m 3.683497,0 c -0.0031,1.799473 -0.0063,3.540405 -0.0088,5.418791 0.397529,0.226494 0.795362,0.452689 1.188043,0.677995 -0.0027,-2.124475 -0.0064,-4.072163 -0.0098,-6.096786 z m 3.63647,0 v 7.520471 c 0.906645,0.53112 1.76379,1.039662 2.497006,1.487763 0.368019,0.224914 0.759978,0.467762 1.164785,0.72037 v -9.728604 z m 6.102984,0 V 76.44592 c 1.1835,0.757725 2.40825,1.551591 3.66179,2.371432 V 65.168056 Z m 120.844309,13.3258 c -6.3e-4,5.356841 -0.002,10.195012 -0.002,16.38608 0,31.206374 0.004,51.302654 0.0625,64.410024 0.78415,-0.46276 1.55913,-0.94412 2.32234,-1.44487 0.0529,-13.13408 0.0563,-32.85579 0.0563,-62.965154 0,-4.54768 -0.001,-7.943239 -0.002,-12.036473 -1.42025,-2.565307 -2.36698,-4.226417 -2.43758,-4.349607 z m -2.44843,6.182053 c -0.36095,0.770274 -0.76489,1.573726 -1.21181,2.386933 -9.8e-4,2.643098 -0.004,5.051338 -0.004,7.817094 0,29.114044 0.0553,51.399864 0.16072,66.375284 0.3014,-0.15549 0.60223,-0.31467 0.9033,-0.47491 0.10302,-14.97051 0.15658,-37.131 0.15658,-65.900374 0,-3.610274 -0.003,-6.803025 -0.005,-10.204027 z M 81.700931,87.643685 c -0.37973,0.187163 -0.78186,0.387358 -1.21388,0.606681 -7.1e-4,2.257436 -0.004,4.28397 -0.004,6.62957 0,30.138104 0.0608,52.815784 0.17363,67.780364 0.29115,0.10294 0.58198,0.20579 0.87178,0.30541 0.11449,-14.95719 0.1757,-37.72508 0.1757,-68.085774 0,-2.560249 -0.003,-4.781077 -0.004,-7.236251 z m -2.43862,1.237652 c -0.77677,0.406482 -1.60035,0.852022 -2.44016,1.321882 -2e-5,1.69727 -5.1e-4,2.909737 -5.1e-4,4.676717 0,32.690334 0.003,53.327584 0.0703,66.358224 0.76479,0.31006 1.53041,0.60347 2.29495,0.88781 0.0722,-12.96915 0.076,-33.73702 0.076,-67.246034 0,-2.266421 -4.7e-4,-3.846539 -5.2e-4,-5.998599 z M 196.4438,89.59292 v 5.287016 60.268674 c 1.30589,-1.05741 2.53753,-2.19011 3.66179,-3.40651 V 96.641587 c -1.24122,-2.452492 -2.48387,-4.83639 -3.66179,-7.048667 z M 73.159841,92.391199 c -1.33236,0.854411 -2.59844,1.741156 -3.66179,2.626196 v 62.675245 c 1.19154,0.68177 2.41648,1.3176 3.66179,1.90997 V 94.879936 Z m 109.855839,0.02067 c -0.38904,0.445621 -0.79656,0.873924 -1.21905,1.284157 -2e-5,0.416074 -5.1e-4,0.765033 -5.1e-4,1.183908 0,30.739966 0.063,53.665716 0.18035,68.606156 0.28878,-0.11445 0.57646,-0.23182 0.86299,-0.3514 0.1154,-14.95232 0.17725,-37.7709 0.17725,-68.254756 0,-0.873223 -9.3e-4,-1.607035 -10e-4,-2.468065 z m -46.38322,2.465482 c 0,9.13e-4 0,0.0017 0,0.0026 0,35.253139 0.0813,60.462109 0.23462,74.798539 0.2507,-0.008 0.50123,-0.0175 0.75189,-0.0258 0.15261,-14.28812 0.23351,-39.37547 0.23409,-74.408897 -0.44343,-0.132551 -0.86425,-0.2563 -1.2206,-0.366385 z m 2.44223,0.727604 c 0.001,34.791345 0.0814,59.743005 0.23306,73.988255 0.25126,-0.01 0.50226,-0.0216 0.75345,-0.032 0.15096,-14.19992 0.23135,-39.0313 0.23306,-73.608433 -0.4358,-0.122018 -0.82473,-0.233585 -1.21957,-0.347782 z m 40.28023,0.07907 c -0.72648,0.482499 -1.49136,0.900014 -2.2965,1.233514 -0.0489,0.02027 -0.0959,0.03785 -0.14469,0.05788 1.9e-4,34.904791 0.007,55.823911 0.0961,68.207721 0.75584,-0.22204 1.50823,-0.45352 2.2531,-0.70435 0.0859,-12.63537 0.0919,-33.66187 0.092,-68.794765 z m -35.39836,1.243332 c 2.2e-4,39.224363 0.008,60.756293 0.13333,72.444163 0.72566,-0.0387 1.45097,-0.0801 2.17558,-0.12299 0.12286,-11.64896 0.13148,-33.05967 0.13177,-71.726892 -0.84163,-0.195876 -1.65184,-0.3951 -2.44068,-0.594281 z m -76.899702,0.505397 c -1.289671,1.435875 -2.516012,2.952276 -3.661791,4.536156 v 51.47231 c 1.148107,0.98764 2.375901,1.90228 3.661791,2.75177 z M 174.47202,97.89991 c -1.2539,0.432824 -2.46492,0.780241 -3.6618,1.054198 v 67.746772 c 1.22859,-0.24454 2.45013,-0.51935 3.6618,-0.82372 z m -24.41092,0.412893 c 0.005,32.881997 0.0835,56.736127 0.22738,70.672697 0.25486,-0.0176 0.5091,-0.0363 0.76378,-0.0543 0.14318,-13.90943 0.22075,-37.66788 0.22634,-70.386916 -0.4073,-0.07596 -0.81373,-0.151099 -1.2175,-0.231511 z m 2.43965,0.456303 V 168.8284 c 1.63225,-0.12014 3.25963,-0.24665 4.88239,-0.38034 V 99.454335 c -1.60345,-0.166518 -3.24736,-0.40277 -4.88239,-0.685231 z m 48.82751,0.306443 c 0.004,20.730651 0.0366,37.872151 0.0971,51.135381 0.35837,-0.44689 0.7015,-0.90474 1.02939,-1.37304 0.0539,-12.48536 0.0829,-28.44797 0.0889,-47.27619 -0.39756,-0.82615 -0.80493,-1.656388 -1.21543,-2.486151 z m -31.7407,0.133324 c -0.40526,0.07614 -0.8107,0.144269 -1.21647,0.204123 0.007,30.961704 0.0791,53.724444 0.21033,67.697164 0.26603,-0.0457 0.5318,-0.0919 0.79737,-0.14005 0.1307,-14.01662 0.20249,-36.79182 0.20877,-67.761237 z m -10.98331,0.360185 v 68.780302 c 1.21716,-0.10291 2.43892,-0.22123 3.66179,-0.35657 V 99.765943 c -1.1666,-0.02428 -2.38057,-0.09196 -3.66179,-0.196887 z m 7.32307,0.11162 c -0.79878,0.05697 -1.6087,0.08921 -2.44016,0.09457 6.1e-4,35.556012 0.01,56.393972 0.11627,68.061992 0.73715,-0.0898 1.47429,-0.18712 2.21072,-0.29197 0.10394,-11.73018 0.11258,-32.56547 0.11317,-67.864592 z m 37.8411,4.475702 c 7.8e-4,17.57272 0.004,31.95403 0.0238,42.54572 0.93581,-1.66574 1.73144,-3.44927 2.39778,-5.30769 0.0112,-8.54532 0.0158,-19.29201 0.0171,-31.7009 -0.71589,-1.74386 -1.54585,-3.61398 -2.43861,-5.53713 z m -142.820232,1.50533 c -0.419296,0.69357 -0.822788,1.39639 -1.208712,2.1084 0.0105,16.60236 0.03988,30.75204 0.09043,42.01656 0.327652,0.40599 0.667774,0.8021 1.020093,1.18855 0.05617,-11.93645 0.08869,-27.15612 0.09819,-45.31351 z m -2.437578,4.53047 c -0.967967,2.04535 -1.789607,4.15029 -2.437061,6.29419 0.002,10.31138 0.0068,19.4274 0.01757,26.7839 0.521007,1.36292 1.150263,2.67561 1.904794,3.91862 0.15785,0.26005 0.321262,0.51598 0.488857,0.76895 0.01908,-9.53322 0.02424,-22.41604 0.02584,-37.76566 z" />
    <path
       style="fill:none;stroke:none;stroke-width:5.29167;stroke-linecap:butt;stroke-linejoin:round;stroke-miterlimit:4;stroke-dasharray:none;stroke-opacity:1"
       d="m 84.774159,52.014926 c 0,0 5.749349,-18.6645 13.229133,-23.812499 10.274318,-7.071321 24.910198,-8.188721 37.041658,-5.291671 10.47107,2.50054 21.87696,10.98468 26.45833,18.52084 5.57348,9.168111 4.89743,21.259591 2.64583,31.749995 -1.33464,6.21817 -5.38474,12.21144 -10.58333,15.87499 -5.94481,4.18943 -18.52083,5.29166 -18.52083,5.29166 0,0 13.11974,4.40671 23.8125,5.291672 7.03152,0.581947 12.00235,0.0542 18.52083,-2.645842 9.21852,-3.81843 13.22917,-18.52081 13.22917,-18.52081 0,0 17.63457,30.737179 18.52083,39.687519 0.86905,8.77652 -0.30151,20.59967 -5.29167,29.10418 -3.86769,6.59154 -10.85401,11.16952 -17.69166,14.58332 -8.37144,4.17957 -17.96364,5.79887 -27.2875,6.58333 -25.54688,2.14943 -52.46233,2.97778 -76.729124,-5.29165 -9.029793,-3.07711 -18.86237,-7.72015 -23.812501,-15.875 -4.652681,-7.66486 -4.622555,-17.94061 -2.908333,-26.74167 1.740185,-8.93437 6.67131,-17.4404 12.924998,-24.054219 4.414127,-4.6683 16.441669,-10.05832 16.441669,-10.05832 0,0 -12.251192,-8.30119 -18.562501,-12.15832 -5.181215,-3.16649 -15.833333,-9.008335 -15.833333,-9.008335 h 23.8125 L 56.992908,52.014926 c 0,0 -2.570174,-2.72149 -1.322916,-3.96875 1.247257,-1.247259 14.142938,3.63519 15.875,3.96875 9.327439,1.796302 13.229167,0 13.229167,0 z"
       id="path835-1-6"
       sodipodi:nodetypes="cssccccccccaaaaaaacacccccc" />
    <text
       xml:space="preserve"
       style="font-size:11.2889px;line-height:1.25;font-family:'Comic Sans MS';-inkscape-font-specification:'Comic Sans MS';text-align:center;letter-spacing:0px;word-spacing:0px;text-anchor:middle;stroke-width:0.264583"
       x="132.74146"
       y="229.45018"
       id="text907"><tspan
         sodipodi:role="line"
         x="132.74146"
         y="229.45018"
         style="font-style:normal;font-variant:normal;font-weight:bold;font-stretch:normal;font-family:sans-serif;-inkscape-font-specification:'sans-serif Bold';text-align:center;text-anchor:middle;fill:#ffffff;stroke-width:0.264583"
         id="tspan913">barKode Attachment to Openfoodfacts</tspan><tspan
         sodipodi:role="line"
         x="132.74146"
         y="244.05194"
         style="font-style:normal;font-variant:normal;font-weight:bold;font-stretch:normal;font-family:sans-serif;-inkscape-font-specification:'sans-serif Bold';text-align:center;text-anchor:middle;fill:#ffffff;stroke-width:0.264583"
         id="tspan917">in Vue</tspan></text>
    <path
       style="fill:none;stroke:#ff7721;stroke-width:5.29166667;stroke-linecap:round;stroke-linejoin:round;stroke-miterlimit:4;stroke-dasharray:none;stroke-opacity:1"
       d="m 101.0572,184.0143 c 0,0 -6.195169,1.04029 -9.226507,1.8453 -2.819934,0.74887 -5.535903,1.8453 -8.303854,2.76795 -1.845301,0.61511 -5.535902,1.84531 -5.535902,1.84531 0,0 -7.360299,1.93336 -11.071806,2.76795 -3.059998,0.6881 -9.226504,1.8453 -9.226504,1.8453 0,0 8.111394,2.13483 11.994455,3.6906 4.4686,1.79038 8.582714,4.36406 12.917107,6.45855 4.583747,2.21499 9.060058,4.70603 13.839756,6.45855 3.292283,1.20716 10.149155,2.76796 10.149155,2.76796"
       id="path1021"
       sodipodi:nodetypes="caacacaaac" />
    <path
       style="fill:none;stroke:#ff7721;stroke-width:5.29166667;stroke-linecap:round;stroke-linejoin:round;stroke-miterlimit:4;stroke-dasharray:none;stroke-opacity:1"
       d="m 113.05166,208.92587 0.92265,-11.99446 2.76795,-11.07181 2.76795,-10.14915 7.3812,9.22651 6.45855,9.22649 5.5359,12.91712 2.76796,4.61324"
       id="path1023" />
    <path
       style="fill:none;stroke:#ff7721;stroke-width:5.29166667;stroke-linecap:round;stroke-linejoin:round;stroke-miterlimit:4;stroke-dasharray:none;stroke-opacity:1"
       d="m 112.12901,196.00876 c 0,0 4.28614,-0.82272 6.45855,-0.92265 6.15217,-0.28301 18.45301,0.92265 18.45301,0.92265"
       id="path1025"
       sodipodi:nodetypes="cac" />
    <path
       style="fill:none;stroke:#ff7721;stroke-width:5.29166667;stroke-linecap:round;stroke-linejoin:round;stroke-miterlimit:4;stroke-dasharray:none;stroke-opacity:1"
       d="m 166.56538,182.169 c -3.15283,0.29303 -6.24893,2.20421 -8.30385,4.61326 -2.33617,2.73876 -3.64198,6.5497 -3.6906,10.14915 -0.0394,2.91741 0.9551,6.01772 2.76794,8.30385 2.9169,3.67839 7.3678,6.58567 11.99446,7.38121 4.33976,0.74621 8.98888,-0.77814 12.91711,-2.76795 3.30373,-1.67348 6.38531,-4.2135 8.30385,-7.38121 1.97075,-3.25391 3.26635,-7.30041 2.76796,-11.0718 -0.36489,-2.76109 -1.18973,-5.29031 -4.06251,-7.30115 -3.03399,-2.12368 -6.08783,-2.24677 -9.77725,-1.92536 -3.38418,0.29484 -10.14916,0.92265 -10.14916,0.92265 0,0 -1.79957,-1.01265 -2.76795,-0.92265 z"
       id="path1027"
       sodipodi:nodetypes="saaaassssscs" />
  </g>
</svg>
