<?xml version="1.0" encoding="UTF-8" standalone="no"?>
<svg
   xmlns:dc="http://purl.org/dc/elements/1.1/"
   xmlns:cc="http://creativecommons.org/ns#"
   xmlns:rdf="http://www.w3.org/1999/02/22-rdf-syntax-ns#"
   xmlns:svg="http://www.w3.org/2000/svg"
   xmlns="http://www.w3.org/2000/svg"
   xmlns:sodipodi="http://sodipodi.sourceforge.net/DTD/sodipodi-0.dtd"
   xmlns:inkscape="http://www.inkscape.org/namespaces/inkscape"
   width="1000"
   height="1000"
   viewBox="0 0 264.58333 264.58333"
   version="1.1"
   id="svg8"
   inkscape:version="1.0 (4035a4fb49, 2020-05-01)"
   sodipodi:docname="tu_mini_logo_kao.svg">
  <defs
     id="defs2" />
  <sodipodi:namedview
     id="base"
     pagecolor="#ffffff"
     bordercolor="#666666"
     borderopacity="1.0"
     inkscape:pageopacity="0.0"
     inkscape:pageshadow="2"
     inkscape:zoom="0.25198413"
     inkscape:cx="-622.77907"
     inkscape:cy="96.462804"
     inkscape:document-units="mm"
     inkscape:current-layer="layer1"
     inkscape:document-rotation="0"
     showgrid="false"
     inkscape:window-width="1920"
     inkscape:window-height="986"
     inkscape:window-x="-11"
     inkscape:window-y="-11"
     inkscape:window-maximized="1"
     units="px">
    <inkscape:grid
       type="xygrid"
       id="grid833" />
  </sodipodi:namedview>
  <metadata
     id="metadata5">
    <rdf:RDF>
      <cc:Work
         rdf:about="">
        <dc:format>image/svg+xml</dc:format>
        <dc:type
           rdf:resource="http://purl.org/dc/dcmitype/StillImage" />
        <dc:title />
      </cc:Work>
    </rdf:RDF>
  </metadata>
  <g
     inkscape:label="Warstwa 1"
     inkscape:groupmode="layer"
     id="layer1">
    <path
       sodipodi:nodetypes="cssccccccccaaaaaaacacccccc"
       id="path835-1"
       d="m 59.184666,60.929205 c 0,0 9.278672,-30.121954 21.350022,-38.430122 16.581295,-11.412145 40.201592,-13.2154747 59.780122,-8.540032 16.89888,4.03553 35.30641,17.727773 42.70012,29.890105 8.99483,14.796077 7.90379,34.310074 4.27001,51.240147 -2.15392,10.035287 -8.69023,19.707607 -17.08004,25.620067 -9.59412,6.76117 -29.89009,8.54003 -29.89009,8.54003 0,0 21.17346,7.11183 38.43012,8.54004 11.34791,0.93919 19.37014,0.0875 29.89009,-4.27002 14.87744,-6.16245 21.35007,-29.89008 21.35007,-29.89008 0,0 28.45978,49.60562 29.89009,64.05025 1.40253,14.1641 -0.48659,33.24503 -8.54004,46.97016 -6.24192,10.63785 -17.51688,18.02608 -28.55192,23.5355 -13.51036,6.74525 -28.99086,9.35856 -44.03829,10.6246 -41.22918,3.46888 -84.667008,4.80571 -123.830273,-8.54003 C 40.341806,235.3038 24.47337,227.81057 16.484535,214.64975 8.9757426,202.27973 9.0243626,185.69605 11.790882,171.49234 c 2.808421,-14.41883 10.766584,-28.1464 20.859183,-38.82021 7.123796,-7.53402 26.534601,-16.23276 26.534601,-16.23276 0,0 -19.771746,-13.39698 -29.957336,-19.621875 C 20.865556,91.707209 3.6744939,82.279277 3.6744939,82.279277 H 42.104615 L 14.349527,60.929205 c 0,0 -4.14791,-4.392113 -2.135006,-6.40502 2.012902,-2.012907 22.82477,5.8667 25.620081,6.40502 15.053212,2.898982 21.350064,0 21.350064,0 z"
       style="fill:#999999;stroke:none;stroke-width:4.27001;stroke-linecap:butt;stroke-linejoin:round;stroke-miterlimit:4;stroke-dasharray:none;stroke-opacity:1" />
    <path
       style="fill:none;stroke:none;stroke-width:5.29167;stroke-linecap:butt;stroke-linejoin:round;stroke-miterlimit:4;stroke-dasharray:none;stroke-opacity:1"
       d="m 84.774159,52.014926 c 0,0 5.749349,-18.6645 13.229133,-23.812499 10.274318,-7.071321 24.910198,-8.188721 37.041658,-5.291671 10.47107,2.50054 21.87696,10.98468 26.45833,18.52084 5.57348,9.168111 4.89743,21.259591 2.64583,31.749995 -1.33464,6.21817 -5.38474,12.21144 -10.58333,15.87499 -5.94481,4.18943 -18.52083,5.29166 -18.52083,5.29166 0,0 13.11974,4.40671 23.8125,5.291672 7.03152,0.581947 12.00235,0.0542 18.52083,-2.645842 9.21852,-3.81843 13.22917,-18.52081 13.22917,-18.52081 0,0 17.63457,30.737179 18.52083,39.687519 0.86905,8.77652 -0.30151,20.59967 -5.29167,29.10418 -3.86769,6.59154 -10.85401,11.16952 -17.69166,14.58332 -8.37144,4.17957 -17.96364,5.79887 -27.2875,6.58333 -25.54688,2.14943 -52.46233,2.97778 -76.729124,-5.29165 -9.029793,-3.07711 -18.86237,-7.72015 -23.812501,-15.875 -4.652681,-7.66486 -4.622555,-17.94061 -2.908333,-26.74167 1.740185,-8.93437 6.67131,-17.4404 12.924998,-24.054219 4.414127,-4.6683 16.441669,-10.05832 16.441669,-10.05832 0,0 -12.251192,-8.30119 -18.562501,-12.15832 -5.181215,-3.16649 -15.833333,-9.008335 -15.833333,-9.008335 h 23.8125 L 56.992908,52.014926 c 0,0 -2.570174,-2.72149 -1.322916,-3.96875 1.247257,-1.247259 14.142938,3.63519 15.875,3.96875 9.327439,1.796302 13.229167,0 13.229167,0 z"
       id="path835-1-6"
       sodipodi:nodetypes="cssccccccccaaaaaaacacccccc" />
  </g>
</svg>
